<?xml version="1.0" encoding="UTF-8"?>
<svg width="101px" height="101px" viewBox="0 0 101 101" version="1.1" xmlns="http://www.w3.org/2000/svg" xmlns:xlink="http://www.w3.org/1999/xlink">
    <!-- Generator: Sketch 49.3 (51167) - http://www.bohemiancoding.com/sketch -->
    <title>Shape</title>
    <desc>Created with Sketch.</desc>
    <defs></defs>
    <g id="Page-1" stroke="none" stroke-width="1" fill="none" fill-rule="evenodd">
        <path d="M50.0321716,100.032172 C22.4784081,100.032172 0.0321715818,77.7472253 0.0321715818,50.0321716 C0.0321715818,22.4515264 22.4784081,0.0321715818 50.0321716,0.0321715818 C77.585935,0.0321715818 100.032172,22.4515264 100.032172,50.0321716 C100.032172,77.7203436 77.6128167,100.032172 50.0321716,100.032172 L50.0321716,100.032172 Z M50.0321716,2.37088126 C23.7149673,2.37088126 2.37088126,23.6880856 2.37088126,50.0052899 C2.37088126,76.3224942 23.7149673,97.6396985 50.0321716,97.6396985 C76.3493759,97.6396985 97.6665802,76.3224942 97.6665802,50.0052899 C97.6934619,23.8493759 76.3493759,2.37088126 50.0321716,2.37088126 Z M92.397763,64.2794834 C92.3708813,64.3332469 92.2902361,64.3870103 92.1558275,64.3332469 C92.0483006,64.2794834 91.9945372,64.22572 91.9945372,64.1450748 C91.9945372,64.0644296 93.6612038,59.1450748 93.6612038,53.4730318 C93.6343221,47.3708813 91.1612038,43.6343221 87.9891608,43.6343221 C86.053677,43.6343221 84.6558275,45.0321716 84.6558275,47.1020641 C84.6558275,50.8386232 89.22572,51.1343221 89.22572,59.3063651 C89.22572,62.6396985 88.5267952,65.8117415 87.4246447,69.2794834 C82.2902361,86.5913114 65.9461501,94.6289458 50.0321716,94.6289458 C42.6934619,94.6289458 37.4784081,93.1235694 35.9192684,92.4246447 C35.8655049,92.397763 35.8117415,92.2633544 35.8655049,92.1558275 C35.8923866,92.0751823 35.9999135,91.9945372 36.0805587,92.0214189 C36.6988382,92.2633544 41.1880856,93.6880856 46.72572,93.6880856 C52.8278705,93.6880856 56.430021,91.1880856 56.430021,88.1504512 C56.430021,86.2149673 54.9246447,84.6827092 52.9622791,84.6827092 C49.22572,84.6827092 48.930021,89.3870103 40.9192684,89.3870103 C37.4515264,89.3870103 34.413892,88.6880856 30.8117415,87.585935 C13.6343221,82.3171178 5.46227911,66.1074404 5.46227911,50.0590533 C5.46227911,42.2364727 7.66658018,35.9999135 7.6934619,35.9461501 C7.72034362,35.8923866 7.82787051,35.8655049 7.93539739,35.8923866 C8.06980599,35.9461501 8.09668771,36.053677 8.06980599,36.0805587 C7.85475223,36.72572 6.40313932,41.1880856 6.40313932,46.72572 C6.40313932,52.8278705 8.90313932,56.430021 12.0751823,56.430021 C13.8762576,56.430021 15.4085157,55.0590533 15.4085157,53.0966877 C15.4085157,49.3601286 10.8386232,48.930021 10.8386232,40.8923866 C10.8386232,37.4246447 11.5375479,34.3870103 12.6396985,30.7848598 C17.9085157,13.6074404 34.1181931,5.54292427 50.0321716,5.43539739 C57.4246447,5.38163395 63.9031393,7.58593502 64.1450748,7.80098879 C64.1988382,7.82787051 64.22572,7.93539739 64.1988382,8.04292427 C64.1450748,8.17733287 64.0644296,8.17733287 64.0106662,8.17733287 C63.930021,8.17733287 59.7095909,6.40313932 53.3386232,6.40313932 C47.3708813,6.40313932 43.6343221,8.90313932 43.6343221,12.0751823 C43.6343221,13.8762576 45.0052899,15.3816339 47.1020641,15.3816339 C50.8386232,15.3816339 51.1074404,10.8117415 59.1450748,10.8117415 C62.6128167,10.8117415 65.6504512,11.5106662 69.2526017,12.6128167 C86.5644296,17.8816339 94.4407737,34.22572 94.6020641,50.0052899 C94.7095909,58.1235694 92.4246447,64.22572 92.397763,64.2794834 Z M68.6074404,52.3708813 C63.9031393,52.3708813 60.3009888,55.8386232 60.3009888,59.9784081 C60.3009888,63.4461501 62.3708813,66.2149673 65.1396985,66.2149673 C66.1074404,66.2149673 67.0751823,65.6504512 67.0751823,64.413892 C67.0751823,62.6128167 64.6827092,62.1827092 64.8708813,59.4676555 C64.9784081,57.6934619 66.6719565,56.5106662 68.3117415,56.5106662 C71.6450748,56.5106662 73.1773329,59.7364727 73.1773329,63.0429243 C73.0429243,68.1773329 69.2794834,71.72572 64.8439995,71.72572 C59.0375479,71.72572 55.2741071,66.1880856 55.2741071,60.2203436 C55.2741071,51.3493759 61.0805587,47.8816339 64.1450748,47.0483006 C64.1719565,47.0483006 72.1020641,48.4730318 71.8601286,44.9515264 C71.7526017,43.4192684 69.4676555,42.8278705 67.8009888,42.7472253 C65.9461501,42.6665802 64.1181931,43.3386232 64.1181931,43.3386232 C63.1504512,42.8547522 62.4784081,41.8870103 62.0751823,40.7848598 C67.7472253,36.4837845 71.7794834,32.3439995 71.7794834,27.6396985 C71.7794834,25.1396985 70.1128167,22.9353974 66.9407737,22.9353974 C61.2687307,22.9353974 56.9676555,30.1396985 56.9676555,36.6450748 C56.9676555,37.7472253 56.9676555,38.8493759 57.2364727,39.8439995 C53.6343221,42.4784081 50.9461501,44.1181931 46.1074404,47.0214189 C46.1074404,46.4031393 46.241849,44.8439995 46.6450748,42.8278705 C48.3117415,41.0267952 50.5966877,38.3117415 50.5966877,36.241849 C50.5966877,35.2741071 50.0321716,34.4407737 48.930021,34.4407737 C46.1612038,34.4407737 44.0913114,38.6074404 43.5267952,41.5106662 C42.2902361,43.0429243 39.7902361,44.9784081 37.7203436,44.9784081 C36.053677,44.9784081 35.5160425,43.4461501 35.3547522,42.9085157 C40.6235694,41.1074404 47.1289458,33.9031393 47.1289458,27.397763 C47.1289458,26.0267952 46.5644296,22.9622791 42.4246447,22.9622791 C36.1880856,22.9622791 30.9192684,32.2364727 30.9192684,39.4407737 C28.6880856,39.4407737 27.8816339,37.0751823 27.8816339,35.3009888 C27.8816339,33.4999135 28.5805587,31.6988382 28.5805587,31.1343221 C28.5805587,30.569806 28.3117415,29.897763 27.4784081,29.897763 C25.4085157,29.897763 24.1450748,32.6665802 24.1450748,35.8386232 C24.2794834,40.2741071 27.1827092,43.0429243 31.0805587,43.3117415 C31.6450748,45.9461501 33.9837845,48.4461501 36.8870103,48.4461501 C38.6880856,48.4461501 40.8923866,47.8816339 42.4246447,46.5106662 C42.2902361,47.4784081 42.1558275,48.3117415 41.9945372,49.1450748 C35.8923866,52.3439995 31.4837845,54.5483006 27.4515264,58.1504512 C24.2794834,61.053677 22.4784081,64.9246447 22.4784081,67.9891608 C22.4784081,72.1558275 25.1128167,76.0267952 30.5160425,76.0267952 C36.8870103,76.0267952 41.72572,70.8923866 44.0913114,63.8493759 C45.1934619,60.5160425 45.6504512,55.6773329 45.9192684,51.241849 C52.2902361,47.6396985 55.3009888,45.5429243 58.6343221,43.2042146 C59.0375479,43.9031393 59.4676555,44.4407737 60.0321716,44.8708813 C57.1289458,46.4031393 50.1934619,50.6773329 50.1934619,60.8117415 C50.1934619,68.0160425 55.0321716,76.053677 64.6020641,76.053677 C72.5052899,76.053677 77.9085157,69.5483006 77.9085157,63.3117415 C77.8816339,57.6396985 74.6827092,52.3708813 68.6074404,52.3708813 Z M30.5160425,71.7794834 C28.4461501,71.8870103 27.0483006,70.5429243 27.0483006,68.3386232 C27.0483006,62.3708813 35.3009888,56.6988382 41.5375479,53.6612038 C40.4353974,61.9407737 37.6128167,71.4569028 30.5160425,71.7794834 Z M35.085935,39.0913114 C35.085935,34.5214189 39.6020641,25.8386232 42.3439995,26.7526017 C45.5966877,27.8278705 39.6558275,36.5913114 35.085935,39.0913114 Z M61.2687307,36.9945372 C61.2687307,31.3224942 65.1128167,25.7848598 67.2095909,26.8332469 C69.6020641,28.0429243 65.4085157,33.3923866 61.2687307,36.9945372 Z" id="Shape" fill="#FFFFFF" fill-rule="nonzero"></path>
    </g>
</svg>